<svg xmlns="http://www.w3.org/2000/svg" viewBox="0 0 688.29 246.56"><defs><style>.cls-1{fill:#2b0246;}.cls-2{fill:#feba3b;}</style></defs><g id="Layer_2" data-name="Layer 2"><g id="Layer_1-2" data-name="Layer 1"><path class="cls-1" d="M244,122.75c-.95-1.09-1.29-2.75-3.25-2.4-10.92,1.16-21.42,4.42-32.17,6.45-1.6.3-3.23.41-4.84.61L201,113.24Q196,88.87,191.06,64.51l-1.24-1.35L159.48,42.37c-4.09-1.11-6.94-4.21-10.3-6.47q-13-8.7-25.88-17.48L94.51,0c2,18.05,3.87,34.76,5.72,51.48L112.67,84l14.09,2.3L112.67,84C93,81.59,73.4,79.22,53.78,76.73c-5.68-.73-11.47-.73-17-2.45-5.15.26-10.16-.74-15.17-1.69C16,72,10.26,72,4.77,70.31c-1.48.36-3.16-.51-4.77.58l2.23,3.49C7,81.05,12.9,86.93,17.07,94.08a39.62,39.62,0,0,1,8.77,11c3.13,1.22,3.11,5.72,6.73,6.43h0C45.18,122.32,58.71,132,71.9,142.11c10.54,8.07,20.67,16.69,31.86,23.89q4.27-14.06,8.55-28.11Q108,151.95,103.76,166l20.14,1.44Q123,170.2,122,173l-.17.2c2.11.36,4.18.83,6.24,1.37-2.06-.54-4.13-1-6.24-1.37l.17-.2-1.47,1a8.85,8.85,0,0,0-1.38.56Q77.05,201.78,35,229.06c-.74.47-1.9.77-1.61,2.54l22.25,2c11.37.84,22.76,1.5,34.11,2.62a11.78,11.78,0,0,0,1.29.07c3.21,0,4.85-1.44,6-4.75,1.31-3.88,3.22-7.57,4.87-11.34a5.86,5.86,0,0,1,1.83-4q8-18.87,16-37.75-8,18.87-16,37.75c7.65.2,15-1.88,22.37-3.4,13.48-2.8,27-5.32,40.5-8,10-1.94,19.94-4,29.94-5.78a15.31,15.31,0,0,0,5-1.8h0c1.55-.28,1.95-1.51,2.41-2.77q4-11.07,8-22.13h0c6.38-9.31,10.84-19.74,16.83-29.28,8.32-.29,30.59-2.37,30.59-2.37S248.86,128.32,244,122.75ZM105.45,207,102,215.09a7.73,7.73,0,0,0-2.1,4.59c-.46,1-1,2.09-1.42,3.12a82.35,82.35,0,0,0-3.4,8.11c-1,2.89-2.09,3.39-4.07,3.39-.33,0-.7,0-1.1-.06-8.12-.8-16.38-1.37-24.37-1.93l-9.75-.69L37.3,229.94c23.38-15.17,48.36-31.35,80.48-52.13Q111.6,192.38,105.45,207Zm15.36-32.7-.14-.13.14.13Zm5.1-90.12-11.79-1.93L103.31,53.93l9.63,1.35,25.75,3.61c3.91.55,7.89,1.13,11.74,1.69,12,1.75,24.34,3.55,36.67,4.65-.73.79-1.47,1.58-2.22,2.33l-29,28.62-7.4,7.29c-.84-.77-1.7-1.56-2.52-2.35l-12.26-12-4.45-4.34-.61-.6-.86,0-.37,0-.48,0ZM187,131.79l-11.26,2.56c3.2,3.73,6.51,7.35,9.89,10.92-3.38-3.57-6.69-7.19-9.89-10.92ZM77.71,100l5.53-1.37L77.71,100c-1.88.46-3.77.93-5.64,1.43C73.94,100.91,75.83,100.44,77.71,100Zm41.91,7.69c-2.09,6.64-4.26,13.5-6.36,20.26-2.68,8.68-5.36,17.52-8,26.06-.9,3-1.79,5.92-2.69,8.87-7.17-4.79-14-10.21-20.69-15.46-2.88-2.27-5.85-4.61-8.81-6.88-3.49-2.67-7.06-5.35-10.51-8-8.51-6.4-17.28-13-25.6-20,8.11-1.73,16.15-4,24-6.12,5.64-1.56,11.46-3.17,17.22-4.57,10.36-2.51,20.79-5.39,30.88-8.17,4.33-1.19,8.8-2.42,13.2-3.6l1-.25c.66-.16,1.35-.32,2-.55,0,.23-.11.47-.18.69C123.33,95.92,121.44,101.89,119.62,107.67ZM208,177.24q-3,8.28-6,16.58l0,.09a4.14,4.14,0,0,1-.56,1.25q-7.26-2.25-14.52-4.53c-12-3.74-24.33-7.6-36.58-11.18-3.09-.9-6.22-1.95-9.24-3a147.19,147.19,0,0,0-16.52-4.82l.28-.81.46-1.34,16.28,1c14.46.85,29.4,1.73,44.11,2.56,5.9.33,11.9.59,17.71.84l5.76.24Zm-9.13-5.56,12.69.55a25.54,25.54,0,0,0-3.84-4.68,25.54,25.54,0,0,1,3.84,4.68Zm33.59-39.53a90.67,90.67,0,0,0-5.5,10c-2.66,4.25-5,8.72-7.36,13-2.47,4.61-5,9.35-7.87,13.82a48.49,48.49,0,0,0-5-5.2c-.84-.79-1.71-1.6-2.52-2.42l-4.51-4.56c-6.8-6.85-13.8-13.91-20.29-21.27l2.85-.65c5.37-1.23,10.93-2.49,16.4-3.69l.71-.15a15.76,15.76,0,0,0,5.09-1.73l1.07-.11c1.12-.12,2.28-.24,3.45-.46,4-.76,8-1.7,11.94-2.61,5.47-1.28,11.1-2.59,16.75-3.4A89.26,89.26,0,0,1,232.48,132.15Z"/><path class="cls-1" d="M256.92,221.68l-15-60.34c-.66-2.64-.28-3.78,2.46-3.78h8.89c3.22,0,4.54.57,5.2,3.41l5.49,29.12a131.19,131.19,0,0,1,1.42,14.66H266a82.33,82.33,0,0,1,1.89-14.66L275.46,161c.75-2.84,2.17-3.41,5.1-3.41h7.19c2.93,0,4.44.57,5.11,3.41l7.37,29.12a89.35,89.35,0,0,1,1.9,14.66h.75c0-1.79.76-10.3,1.51-14.66l5.4-29.12c.56-2.84,1.89-3.41,5.1-3.41h7.85c2.74,0,3.12,1.14,2.46,3.78l-15,60.15c-.66,2.75-2.08,3.22-4.72,3.22h-7.57c-2.65,0-4.16-.57-4.73-3l-7.66-30.55A72.11,72.11,0,0,1,284,178.18h-.76A58.88,58.88,0,0,1,281.6,191l-7.75,30.45c-.76,2.75-2.18,3.22-4.73,3.22h-7.57C259,224.71,257.49,224.24,256.92,221.68Z"/><path class="cls-1" d="M327.29,205.13v-10c0-13.62,8-21,22.69-21,15.7,0,22.8,9.08,22.8,20v5.77c0,2.83-1.23,4.72-4.92,4.72H341.57v2.37c0,5.11,3.21,7.47,8.51,7.47,4.44,0,7.28-1.51,9-3.78s2.75-2.56,5.49-1.14l4.63,2.27c2.65,1.33,3.12,3,1.52,5.58-3.41,5.58-10,8.8-20.81,8.8C333.62,226.13,327.29,217.05,327.29,205.13Zm31.21-10.87v-1.52c0-4.73-2.93-7.28-8.52-7.28s-8.41,2.55-8.41,7.28v1.52Z"/><path class="cls-2" d="M381.58,220.83V161.44c0-2.93,1-3.88,3.87-3.88h38.12c2.83,0,3.78.95,3.78,3.88v6.34c0,2.83-1,3.78-3.78,3.78H397v12.2h21.75c2.93,0,3.88.94,3.88,3.78v6.34c0,2.93-.95,3.88-3.88,3.88H397v13h27.43c2.93,0,3.88.95,3.88,3.78v6.34c0,2.93-.95,3.88-3.88,3.88h-39C382.62,224.71,381.58,223.76,381.58,220.83Z"/><path class="cls-2" d="M436.43,221.21V183c0-3.12.66-4.25,3.78-5.48a45.94,45.94,0,0,1,18.45-3.41,22.87,22.87,0,0,1,11.53,2.65,42.8,42.8,0,0,1,15.89-2.65c13.53,0,19.49,7.19,19.49,19.58v27.52c0,2.65-.86,3.5-3.5,3.5h-7.29c-2.64,0-3.5-.85-3.5-3.5V194.07c0-4.64-2.46-7-7.18-7a24.52,24.52,0,0,0-6.53.94,27.06,27.06,0,0,1,.57,5.77v27.43c0,2.65-.85,3.5-3.5,3.5h-7.28c-2.65,0-3.5-.85-3.5-3.5V194.07c0-4.64-2.46-7-7.19-7a22.08,22.08,0,0,0-5.58.66.53.53,0,0,0-.38.57v32.91c0,2.65-.85,3.5-3.5,3.5h-7.28C437.28,224.71,436.43,223.86,436.43,221.21Z"/><path class="cls-2" d="M515.31,242V182.53c0-3.12.76-4.26,3.78-5.49,4-1.51,9.84-2.93,19.2-2.93,14.09,0,20.62,7.19,20.62,19.58v11.92c0,13.33-7.19,20.52-21.85,20.52a37.86,37.86,0,0,1-7.47-.85V242c0,2.64-.85,3.5-3.4,3.5h-7.38C516.26,245.52,515.31,244.66,515.31,242Zm20.62-28.66c6,0,8.7-2.46,8.7-7.75V193.78c0-4.44-2.93-6.9-8-6.9a26.24,26.24,0,0,0-6.52.66.61.61,0,0,0-.48.66v24.59A40.77,40.77,0,0,0,535.93,213.36Z"/><path class="cls-2" d="M568,221.21v-63c0-2.64.85-3.5,3.5-3.5h7.28c2.65,0,3.5.86,3.5,3.5v63c0,2.65-.85,3.5-3.5,3.5h-7.28C568.84,224.71,568,223.86,568,221.21Z"/><path class="cls-2" d="M591.26,206.27v-12.2c0-12.39,7.75-20,22.51-20,14.94,0,22.6,7.57,22.6,20v12.2c0,12.39-7.66,19.86-22.6,19.86C599,226.13,591.26,218.66,591.26,206.27Zm22.51,7.18c5.58,0,8.32-2.55,8.32-7.09V193.88c0-4.64-2.74-7.1-8.32-7.1s-8.23,2.46-8.23,7.1v12.48C605.54,210.9,608.28,213.45,613.77,213.45Z"/><path class="cls-2" d="M646.49,237.67c-1.7-2.56-1.13-4.26,1.42-5.58l5.39-2.75c2.65-1.42,3.88-.94,5.49,1.33s3.78,3.59,7.75,3.59c4.82,0,7.47-2.65,7.47-7.75v-3.88a47.87,47.87,0,0,1-8.79.66c-14,0-20.43-7.19-20.43-19.58V179c0-2.65.85-3.5,3.5-3.5h7.28c2.65,0,3.5.85,3.5,3.5v24.21c0,4.92,2.65,7.09,8,7.09a37,37,0,0,0,6.9-.66V179c0-2.65,1-3.5,3.5-3.5h7.38c2.55,0,3.4.85,3.4,3.5v46.44c0,12.38-6,21.09-21.56,21.09C656.33,246.56,650,243.24,646.49,237.67Z"/></g></g></svg>